<?xml version="1.0" encoding="utf-8"?>
<!-- Generator: Adobe Illustrator 23.0.0, SVG Export Plug-In . SVG Version: 6.00 Build 0)  -->
<svg version="1.1" id="Layer_1" xmlns="http://www.w3.org/2000/svg" xmlns:xlink="http://www.w3.org/1999/xlink" x="0px" y="0px"
	 viewBox="0 0 150 150" style="enable-background:new 0 0 150 150;" xml:space="preserve">
<rect x="30" y="60" width="10" height="10"/>
<rect x="20" y="70" width="10" height="10"/>
<rect x="10" y="80" width="10" height="10"/>
<rect x="130" y="80" width="10" height="10"/>
<rect x="60" y="20" width="10" height="20"/>
<rect x="50" y="70" width="10" height="20"/>
<rect x="40" y="90" width="10" height="10"/>
<rect x="30" y="130" width="20" height="10"/>
<rect x="70" y="90" width="10" height="10"/>
<rect x="100" y="130" width="20" height="10"/>
<g>
	<polygon points="60,110 40,110 40,100 30,100 30,110 20,110 20,120 50,120 50,130 60,130 60,120 70,120 70,100 60,100 	"/>
	<polygon points="130,110 120,110 120,100 110,100 110,110 90,110 90,100 80,100 80,120 90,120 90,130 100,130 100,120 130,120 	"/>
</g>
<rect x="100" y="90" width="10" height="10"/>
<rect x="90" y="70" width="10" height="20"/>
<polygon points="110,50 80,50 80,40 70,40 70,50 40,50 40,60 60,60 60,70 70,70 70,60 80,60 80,70 90,70 90,60 110,60 "/>
<rect x="80" y="20" width="10" height="20"/>
<rect x="110" y="60" width="10" height="10"/>
<rect x="120" y="70" width="10" height="10"/>
<rect x="70" y="10" width="10" height="10"/>
</svg>
