<?xml version="1.0" encoding="utf-8"?>
<!-- Generator: Adobe Illustrator 23.0.0, SVG Export Plug-In . SVG Version: 6.00 Build 0)  -->
<svg version="1.1" id="Layer_1" xmlns="http://www.w3.org/2000/svg" xmlns:xlink="http://www.w3.org/1999/xlink" x="0px" y="0px"
	 viewBox="0 0 150 150" style="enable-background:new 0 0 150 150;" xml:space="preserve">
<rect x="100" y="120" width="10" height="10"/>
<rect x="110" y="50" width="10" height="70"/>
<rect x="110" y="20" width="10" height="10"/>
<rect x="30" y="20" width="10" height="10"/>
<rect x="50" y="130" width="50" height="10"/>
<rect x="40" y="110" width="10" height="20"/>
<polygon points="100,30 100,10 90,10 90,30 80,30 80,10 70,10 70,30 60,30 60,10 50,10 50,30 40,30 40,60 50,60 50,40 90,40 100,40 
	100,50 110,50 110,30 "/>
<rect x="50" y="60" width="10" height="10"/>
<polygon points="70,80 70,90 60,90 60,100 80,100 80,70 60,70 60,80 "/>
<rect x="50" y="100" width="10" height="10"/>
</svg>
