<?xml version="1.0" encoding="utf-8"?>
<!-- Generator: Adobe Illustrator 23.0.0, SVG Export Plug-In . SVG Version: 6.00 Build 0)  -->
<svg version="1.1" id="Layer_1" xmlns="http://www.w3.org/2000/svg" xmlns:xlink="http://www.w3.org/1999/xlink" x="0px" y="0px"
	 viewBox="0 0 150 150" style="enable-background:new 0 0 150 150;" xml:space="preserve">
<path d="M100,50V10H50v40H10v50h40v40h50v-40h40V50H100z M110,60v10h-10V60H110z M60,90V60h30v30H60z M80,50V40h10v10H80z M90,30H80
	V20h10V30z M70,20v10H60V20H70z M60,40h10v10H60V40z M50,70H40V60h10V70z M30,60v10H20V60H30z M20,80h10v10H20V80z M40,90V80h10v10
	H40z M70,100v10H60v-10H70z M70,130H60v-10h10V130z M80,120h10v10H80V120z M90,110H80v-10h10V110z M100,80h10v10h-10V80z M120,90V80
	h10v10H120z M130,70h-10V60h10V70z"/>
</svg>
