<?xml version="1.0" encoding="utf-8"?>
<!-- Generator: Adobe Illustrator 23.0.0, SVG Export Plug-In . SVG Version: 6.00 Build 0)  -->
<svg version="1.1" id="Layer_1" xmlns="http://www.w3.org/2000/svg" xmlns:xlink="http://www.w3.org/1999/xlink" x="0px" y="0px"
	 viewBox="0 0 150 150" style="enable-background:new 0 0 150 150;" xml:space="preserve">
<rect x="70" y="80" width="10" height="60"/>
<polygon points="20,50 10,50 10,80 20,80 20,60 30,60 30,40 20,40 "/>
<polygon points="130,50 130,40 120,40 120,60 130,60 130,80 140,80 140,50 "/>
<polygon points="40,20 40,30 30,30 30,40 50,40 50,30 60,30 60,20 "/>
<polygon points="120,40 120,30 110,30 110,20 90,20 90,30 100,30 100,40 "/>
<rect x="60" y="10" width="30" height="10"/>
</svg>
