<?xml version="1.0" encoding="utf-8"?>
<!-- Generator: Adobe Illustrator 23.0.0, SVG Export Plug-In . SVG Version: 6.00 Build 0)  -->
<svg version="1.1" id="Layer_1" xmlns="http://www.w3.org/2000/svg" xmlns:xlink="http://www.w3.org/1999/xlink" x="0px" y="0px"
	 viewBox="0 0 150 150" style="enable-background:new 0 0 150 150;" xml:space="preserve">
<rect x="40" y="50" width="20" height="10"/>
<rect x="20" y="60" width="20" height="10"/>
<rect x="50" y="20" width="10" height="20"/>
<rect x="40" y="80" width="10" height="10"/>
<rect x="100" y="80" width="10" height="10"/>
<rect x="100" y="100" width="10" height="10"/>
<rect x="40" y="100" width="10" height="10"/>
<rect x="30" y="120" width="30" height="10"/>
<polygon points="20,130 20,70 10,70 10,140 30,140 30,130 "/>
<rect x="90" y="50" width="20" height="10"/>
<rect x="110" y="60" width="20" height="10"/>
<polygon points="130,70 130,130 120,130 120,140 140,140 140,70 "/>
<rect x="90" y="120" width="30" height="10"/>
<polygon points="100,80 100,70 80,70 80,50 90,50 90,40 60,40 60,50 70,50 70,70 50,70 50,80 70,80 70,90 50,90 50,100 70,100 
	70,110 60,110 60,120 90,120 90,110 80,110 80,100 100,100 100,90 80,90 80,80 "/>
<rect x="90" y="20" width="10" height="20"/>
<rect x="60" y="10" width="30" height="10"/>
</svg>
