<?xml version="1.0" encoding="utf-8"?>
<!-- Generator: Adobe Illustrator 23.0.0, SVG Export Plug-In . SVG Version: 6.00 Build 0)  -->
<svg version="1.1" id="Layer_1" xmlns="http://www.w3.org/2000/svg" xmlns:xlink="http://www.w3.org/1999/xlink" x="0px" y="0px"
	 viewBox="0 0 150 150" style="enable-background:new 0 0 150 150;" xml:space="preserve">
<polygon points="130,20 130,10 20,10 20,50 90,50 90,40 30,40 30,20 "/>
<polygon points="90,30 90,40 120,40 120,70 80,70 80,80 130,80 130,30 "/>
<polygon points="30,90 30,70 80,70 80,60 20,60 20,100 120,100 120,110 20,110 20,140 30,140 30,120 50,120 50,140 60,140 60,120 
	80,120 80,140 90,140 90,120 120,120 120,140 130,140 130,90 "/>
</svg>
