<?xml version="1.0" encoding="utf-8"?>
<!-- Generator: Adobe Illustrator 23.0.0, SVG Export Plug-In . SVG Version: 6.00 Build 0)  -->
<svg version="1.1" id="Layer_1" xmlns="http://www.w3.org/2000/svg" xmlns:xlink="http://www.w3.org/1999/xlink" x="0px" y="0px"
	 viewBox="0 0 150 150" style="enable-background:new 0 0 150 150;" xml:space="preserve">
<rect x="90" y="50" width="20" height="10"/>
<rect x="90" y="10" width="20" height="10"/>
<rect x="40" y="50" width="20" height="10"/>
<rect x="40" y="10" width="20" height="10"/>
<rect x="60" y="20" width="30" height="20"/>
<rect x="30" y="20" width="10" height="30"/>
<polygon points="130,70 90,70 90,60 60,60 60,70 20,70 20,140 30,140 30,80 40,80 40,140 50,140 50,80 60,80 60,140 70,140 70,80 
	80,80 80,140 90,140 90,80 100,80 100,140 110,140 110,80 120,80 120,140 130,140 "/>
<rect x="110" y="20" width="10" height="30"/>
</svg>
