<?xml version="1.0" encoding="utf-8"?>
<!-- Generator: Adobe Illustrator 23.0.0, SVG Export Plug-In . SVG Version: 6.00 Build 0)  -->
<svg version="1.1" id="Layer_1" xmlns="http://www.w3.org/2000/svg" xmlns:xlink="http://www.w3.org/1999/xlink" x="0px" y="0px"
	 viewBox="0 0 150 150" style="enable-background:new 0 0 150 150;" xml:space="preserve">
<rect x="110" y="20" width="10" height="20"/>
<rect x="50" y="30" width="10" height="10"/>
<rect x="40" y="10" width="10" height="20"/>
<rect x="20" y="40" width="20" height="10"/>
<rect x="10" y="110" width="20" height="10"/>
<rect x="30" y="100" width="10" height="10"/>
<rect x="110" y="60" width="20" height="10"/>
<polygon points="110,80 110,70 90,70 90,50 110,50 110,40 90,40 90,30 100,30 100,20 90,20 90,10 70,10 70,20 60,20 60,30 70,30 
	70,40 60,40 60,50 70,50 70,70 50,70 50,50 40,50 40,70 30,70 30,60 20,60 20,70 10,70 10,90 20,90 20,100 30,100 30,90 40,90 
	40,100 50,100 50,90 70,90 70,100 70,100 60,100 60,110 70,110 70,140 80,140 80,110 90,110 90,90 100,90 100,100 110,100 110,90 
	140,90 140,80 "/>
<rect x="110" y="100" width="20" height="10"/>
<rect x="90" y="110" width="10" height="20"/>
<rect x="50" y="110" width="10" height="20"/>
</svg>
