<?xml version="1.0" encoding="utf-8"?>
<!-- Generator: Adobe Illustrator 23.0.0, SVG Export Plug-In . SVG Version: 6.00 Build 0)  -->
<svg version="1.1" id="Layer_1" xmlns="http://www.w3.org/2000/svg" xmlns:xlink="http://www.w3.org/1999/xlink" x="0px" y="0px"
	 viewBox="0 0 150 150" style="enable-background:new 0 0 150 150;" xml:space="preserve">
<rect x="30" y="30" width="10" height="10"/>
<polygon points="20,20 50,20 50,10 10,10 10,50 20,50 "/>
<polygon points="140,50 140,10 100,10 100,20 130,20 130,50 "/>
<rect x="110" y="30" width="10" height="10"/>
<rect x="110" y="110" width="10" height="10"/>
<polygon points="130,130 100,130 100,140 140,140 140,100 130,100 "/>
<polygon points="10,100 10,140 50,140 50,130 20,130 20,100 "/>
<rect x="30" y="110" width="10" height="10"/>
<polygon points="50,90 20,90 20,100 40,100 40,110 50,110 50,130 60,130 60,90 70,90 70,80 80,80 80,90 90,90 90,130 100,130 
	100,110 110,110 110,100 130,100 130,90 100,90 100,80 90,80 90,70 100,70 100,60 130,60 130,50 110,50 110,40 100,40 100,20 90,20 
	90,60 80,60 80,70 70,70 70,60 60,60 60,60 60,20 50,20 50,40 40,40 40,50 20,50 20,60 50,60 50,70 60,70 60,80 50,80 "/>
</svg>
