<?xml version="1.0" encoding="utf-8"?>
<!-- Generator: Adobe Illustrator 23.0.0, SVG Export Plug-In . SVG Version: 6.00 Build 0)  -->
<svg version="1.1" id="Layer_1" xmlns="http://www.w3.org/2000/svg" xmlns:xlink="http://www.w3.org/1999/xlink" x="0px" y="0px"
	 viewBox="0 0 150 150" style="enable-background:new 0 0 150 150;" xml:space="preserve">
<rect x="10" y="130" width="30" height="10"/>
<rect x="40" y="120" width="10" height="10"/>
<rect x="100" y="120" width="10" height="10"/>
<rect x="110" y="130" width="30" height="10"/>
<rect x="60" y="20" width="10" height="10"/>
<rect x="70" y="10" width="10" height="10"/>
<rect x="80" y="20" width="10" height="10"/>
<rect x="40" y="20" width="10" height="10"/>
<rect x="100" y="20" width="10" height="10"/>
<rect x="110" y="10" width="10" height="10"/>
<rect x="30" y="10" width="10" height="10"/>
<rect x="20" y="20" width="10" height="10"/>
<rect x="120" y="20" width="10" height="10"/>
<rect x="10" y="30" width="10" height="10"/>
<rect x="130" y="30" width="10" height="10"/>
<rect x="20" y="40" width="10" height="10"/>
<rect x="120" y="40" width="10" height="10"/>
<rect x="30" y="50" width="10" height="10"/>
<rect x="110" y="50" width="10" height="10"/>
<polygon points="50,40 40,40 40,50 50,50 50,120 60,120 60,30 50,30 "/>
<polygon points="110,40 100,40 100,30 90,30 90,120 100,120 100,50 110,50 "/>
</svg>
