<?xml version="1.0" encoding="utf-8"?>
<!-- Generator: Adobe Illustrator 23.0.0, SVG Export Plug-In . SVG Version: 6.00 Build 0)  -->
<svg version="1.1" id="Layer_1" xmlns="http://www.w3.org/2000/svg" xmlns:xlink="http://www.w3.org/1999/xlink" x="0px" y="0px"
	 viewBox="0 0 150 150" style="enable-background:new 0 0 150 150;" xml:space="preserve">
<rect x="20" y="30" width="10" height="10"/>
<rect x="30" y="40" width="10" height="10"/>
<rect x="70" y="40" width="10" height="10"/>
<polygon points="60,40 70,40 70,30 60,30 60,10 50,10 50,30 40,30 40,40 50,40 50,120 60,120 "/>
<rect x="10" y="10" width="10" height="20"/>
<rect x="130" y="10" width="10" height="20"/>
<polygon points="100,30 100,10 90,10 90,30 80,30 80,40 90,40 90,120 100,120 100,40 110,40 110,30 "/>
<rect x="120" y="30" width="10" height="10"/>
<rect x="110" y="40" width="10" height="10"/>
<rect x="10" y="100" width="10" height="20"/>
<rect x="20" y="120" width="10" height="10"/>
<rect x="40" y="120" width="10" height="10"/>
<rect x="30" y="130" width="10" height="10"/>
<rect x="60" y="120" width="10" height="10"/>
<rect x="80" y="120" width="10" height="10"/>
<rect x="70" y="130" width="10" height="10"/>
<rect x="130" y="100" width="10" height="20"/>
<rect x="100" y="120" width="10" height="10"/>
<rect x="120" y="120" width="10" height="10"/>
<rect x="110" y="130" width="10" height="10"/>
</svg>
