<?xml version="1.0" encoding="utf-8"?>
<!-- Generator: Adobe Illustrator 23.0.0, SVG Export Plug-In . SVG Version: 6.00 Build 0)  -->
<svg version="1.1" id="Layer_1" xmlns="http://www.w3.org/2000/svg" xmlns:xlink="http://www.w3.org/1999/xlink" x="0px" y="0px"
	 viewBox="0 0 150 150" style="enable-background:new 0 0 150 150;" xml:space="preserve">
<rect x="50" y="60" width="10" height="10"/>
<rect x="50" y="20" width="10" height="10"/>
<rect x="40" y="30" width="10" height="30"/>
<rect x="40" y="90" width="10" height="10"/>
<rect x="100" y="90" width="10" height="10"/>
<rect x="40" y="110" width="10" height="10"/>
<rect x="100" y="110" width="10" height="10"/>
<polygon points="60,70 60,80 70,80 70,140 80,140 80,80 90,80 90,70 "/>
<rect x="100" y="30" width="10" height="30"/>
<rect x="90" y="20" width="10" height="10"/>
<rect x="90" y="60" width="10" height="10"/>
<rect x="60" y="10" width="30" height="10"/>
</svg>
