<?xml version="1.0" encoding="utf-8"?>
<!-- Generator: Adobe Illustrator 23.0.0, SVG Export Plug-In . SVG Version: 6.00 Build 0)  -->
<svg version="1.1" id="Layer_1" xmlns="http://www.w3.org/2000/svg" xmlns:xlink="http://www.w3.org/1999/xlink" x="0px" y="0px"
	 viewBox="0 0 150 150" style="enable-background:new 0 0 150 150;" xml:space="preserve">
<rect x="50" y="60" width="10" height="30"/>
<rect x="40" y="90" width="10" height="10"/>
<rect x="30" y="100" width="10" height="10"/>
<rect x="60" y="90" width="30" height="10"/>
<rect x="90" y="60" width="10" height="30"/>
<rect x="100" y="90" width="10" height="10"/>
<rect x="110" y="100" width="10" height="10"/>
<polygon points="40,20 20,20 20,40 30,40 30,30 40,30 "/>
<polygon points="110,20 110,30 120,30 120,40 130,40 130,20 "/>
<polygon points="30,120 30,110 20,110 20,130 40,130 40,120 "/>
<polygon points="120,110 120,120 110,120 110,130 130,130 130,110 "/>
<rect x="10" y="40" width="10" height="70"/>
<rect x="130" y="40" width="10" height="70"/>
<polygon points="110,20 110,10 40,10 40,20 70,20 70,50 60,50 60,60 90,60 90,50 80,50 80,20 "/>
<rect x="40" y="130" width="70" height="10"/>
</svg>
