<?xml version="1.0" encoding="utf-8"?>
<!-- Generator: Adobe Illustrator 23.0.0, SVG Export Plug-In . SVG Version: 6.00 Build 0)  -->
<svg version="1.1" id="Layer_1" xmlns="http://www.w3.org/2000/svg" xmlns:xlink="http://www.w3.org/1999/xlink" x="0px" y="0px"
	 viewBox="0 0 150 150" style="enable-background:new 0 0 150 150;" xml:space="preserve">
<rect x="90" y="30" width="10" height="10"/>
<rect x="80" y="40" width="10" height="10"/>
<rect x="70" y="50" width="10" height="10"/>
<polygon points="120,130 120,70 70,70 70,60 60,60 60,70 20,70 20,20 100,20 100,30 110,30 110,20 120,20 120,10 10,10 10,80 70,80 
	70,130 10,130 10,140 80,140 80,80 110,80 110,140 140,140 140,130 "/>
</svg>
