<?xml version="1.0" encoding="utf-8"?>
<!-- Generator: Adobe Illustrator 23.0.0, SVG Export Plug-In . SVG Version: 6.00 Build 0)  -->
<svg version="1.1" id="Layer_1" xmlns="http://www.w3.org/2000/svg" xmlns:xlink="http://www.w3.org/1999/xlink" x="0px" y="0px"
	 viewBox="0 0 150 150" style="enable-background:new 0 0 150 150;" xml:space="preserve">
<rect x="30" y="110" width="10" height="10"/>
<rect x="40" y="100" width="10" height="10"/>
<rect x="50" y="90" width="10" height="10"/>
<polygon points="140,20 140,10 80,10 80,70 50,70 50,10 10,10 10,20 40,20 40,80 60,80 60,90 70,90 70,80 130,80 130,130 30,130 
	30,120 20,120 20,130 10,130 10,140 140,140 140,70 90,70 90,20 "/>
</svg>
