<?xml version="1.0" encoding="utf-8"?>
<!-- Generator: Adobe Illustrator 23.0.0, SVG Export Plug-In . SVG Version: 6.00 Build 0)  -->
<svg version="1.1" xmlns="http://www.w3.org/2000/svg" xmlns:xlink="http://www.w3.org/1999/xlink" x="0px" y="0px"
	 viewBox="0 0 150 150" style="enable-background:new 0 0 150 150;" xml:space="preserve">
<g id="Layer_1">
</g>
<g id="Layer_2">
	<rect x="50" y="90" width="10" height="10"/>
	<rect x="40" y="100" width="10" height="10"/>
	<rect x="30" y="110" width="10" height="10"/>
	<rect x="10" y="130" width="10" height="10"/>
	<rect x="20" y="120" width="10" height="10"/>
	<rect x="20" y="60" width="10" height="10"/>
	<rect x="10" y="30" width="10" height="30"/>
	<rect x="20" y="20" width="10" height="10"/>
	<rect x="130" y="20" width="10" height="30"/>
	<polygon points="130,20 130,10 30,10 30,20 60,20 60,70 30,70 30,80 60,80 60,90 70,90 70,20 90,20 90,60 130,60 130,50 100,50 
		100,20 	"/>
</g>
</svg>
