<?xml version="1.0" encoding="utf-8"?>
<!-- Generator: Adobe Illustrator 23.0.0, SVG Export Plug-In . SVG Version: 6.00 Build 0)  -->
<svg version="1.1" xmlns="http://www.w3.org/2000/svg" xmlns:xlink="http://www.w3.org/1999/xlink" x="0px" y="0px"
	 viewBox="0 0 150 150" style="enable-background:new 0 0 150 150;" xml:space="preserve">
<g id="Layer_1">
</g>
<g id="Layer_2">
	<rect x="100" y="10" width="30" height="10"/>
	<rect x="50" y="10" width="40" height="10"/>
	<rect x="30" y="20" width="20" height="10"/>
	<rect x="20" y="30" width="10" height="20"/>
	<rect x="10" y="50" width="10" height="70"/>
	<rect x="20" y="120" width="10" height="10"/>
	<rect x="30" y="130" width="50" height="10"/>
	<polygon points="90,110 90,120 80,120 80,130 100,130 100,110 	"/>
	<rect x="100" y="130" width="20" height="10"/>
	<rect x="100" y="100" width="20" height="10"/>
	<rect x="90" y="20" width="10" height="10"/>
	<rect x="80" y="30" width="10" height="20"/>
	<rect x="90" y="50" width="30" height="10"/>
	<rect x="120" y="40" width="10" height="10"/>
	<rect x="130" y="20" width="10" height="20"/>
</g>
</svg>
