<?xml version="1.0" encoding="utf-8"?>
<!-- Generator: Adobe Illustrator 23.0.0, SVG Export Plug-In . SVG Version: 6.00 Build 0)  -->
<svg version="1.1" xmlns="http://www.w3.org/2000/svg" xmlns:xlink="http://www.w3.org/1999/xlink" x="0px" y="0px"
	 viewBox="0 0 150 150" style="enable-background:new 0 0 150 150;" xml:space="preserve">
<g id="Layer_1">
</g>
<g id="Layer_2">
	<rect x="60" y="80" width="10" height="30"/>
	<polygon points="100,90 100,100 80,100 80,110 100,110 100,120 110,120 110,90 	"/>
	<rect x="50" y="110" width="10" height="30"/>
	<rect x="10" y="60" width="10" height="20"/>
	<polygon points="130,70 130,50 80,50 80,30 110,30 110,40 120,40 120,10 110,10 110,20 40,20 40,10 30,10 30,40 40,40 40,30 70,30 
		70,50 20,50 20,60 70,60 70,80 80,80 80,60 120,60 120,80 140,80 140,70 	"/>
</g>
</svg>
