<?xml version="1.0" encoding="utf-8"?>
<!-- Generator: Adobe Illustrator 23.0.0, SVG Export Plug-In . SVG Version: 6.00 Build 0)  -->
<svg version="1.1" xmlns="http://www.w3.org/2000/svg" xmlns:xlink="http://www.w3.org/1999/xlink" x="0px" y="0px"
	 viewBox="0 0 150 150" style="enable-background:new 0 0 150 150;" xml:space="preserve">
<g id="Layer_1">
</g>
<g id="Layer_2">
	<rect x="100" y="100" width="30" height="10"/>
	<rect x="60" y="100" width="30" height="10"/>
	<polygon points="30,110 10,110 10,130 20,130 20,120 30,120 	"/>
	<rect x="30" y="100" width="10" height="10"/>
	<rect x="40" y="90" width="20" height="10"/>
	<rect x="30" y="70" width="10" height="20"/>
	<rect x="20" y="20" width="10" height="50"/>
	<rect x="30" y="10" width="40" height="10"/>
	<rect x="70" y="20" width="10" height="30"/>
	<rect x="40" y="50" width="30" height="10"/>
	<rect x="130" y="110" width="10" height="20"/>
	<rect x="90" y="110" width="10" height="20"/>
	<rect x="100" y="130" width="30" height="10"/>
</g>
</svg>
