<?xml version="1.0" encoding="utf-8"?>
<!-- Generator: Adobe Illustrator 23.0.0, SVG Export Plug-In . SVG Version: 6.00 Build 0)  -->
<svg version="1.1" xmlns="http://www.w3.org/2000/svg" xmlns:xlink="http://www.w3.org/1999/xlink" x="0px" y="0px"
	 viewBox="0 0 150 150" style="enable-background:new 0 0 150 150;" xml:space="preserve">
<g id="Layer_1">
</g>
<g id="Layer_2">
	<rect x="30" y="20" width="20" height="10"/>
	<rect x="20" y="30" width="10" height="10"/>
	<rect x="10" y="40" width="10" height="80"/>
	<rect x="20" y="120" width="10" height="10"/>
	<rect x="30" y="130" width="30" height="10"/>
	<rect x="60" y="120" width="10" height="10"/>
	<rect x="70" y="70" width="10" height="50"/>
	<rect x="120" y="20" width="10" height="10"/>
	<rect x="130" y="30" width="10" height="80"/>
	<rect x="130" y="130" width="10" height="10"/>
	<rect x="120" y="110" width="10" height="10"/>
	<rect x="80" y="120" width="40" height="10"/>
	<polygon points="50,10 50,20 80,20 80,70 90,70 90,20 120,20 120,10 	"/>
</g>
</svg>
