<?xml version="1.0" encoding="utf-8"?>
<!-- Generator: Adobe Illustrator 23.0.0, SVG Export Plug-In . SVG Version: 6.00 Build 0)  -->
<svg version="1.1" xmlns="http://www.w3.org/2000/svg" xmlns:xlink="http://www.w3.org/1999/xlink" x="0px" y="0px"
	 viewBox="0 0 150 150" style="enable-background:new 0 0 150 150;" xml:space="preserve">
<g id="Layer_1">
</g>
<g id="Layer_2">
	<rect x="50" y="10" width="50" height="10"/>
	<rect x="40" y="20" width="10" height="30"/>
	<polygon points="100,60 100,50 50,50 50,60 70,60 70,70 60,70 60,80 90,80 90,70 80,70 80,60 	"/>
	<rect x="40" y="80" width="20" height="10"/>
	<rect x="30" y="90" width="10" height="10"/>
	<rect x="100" y="130" width="30" height="10"/>
	<rect x="130" y="100" width="10" height="30"/>
	<polygon points="130,90 100,90 100,80 90,80 90,130 100,130 100,100 130,100 	"/>
	<rect x="20" y="100" width="10" height="20"/>
	<rect x="10" y="120" width="10" height="20"/>
	<rect x="100" y="20" width="10" height="30"/>
</g>
</svg>
