<?xml version="1.0" encoding="utf-8"?>
<!-- Generator: Adobe Illustrator 23.0.0, SVG Export Plug-In . SVG Version: 6.00 Build 0)  -->
<svg version="1.1" xmlns="http://www.w3.org/2000/svg" xmlns:xlink="http://www.w3.org/1999/xlink" x="0px" y="0px"
	 viewBox="0 0 150 150" style="enable-background:new 0 0 150 150;" xml:space="preserve">
<g id="Layer_1">
</g>
<g id="Layer_2">
	<rect x="100" y="20" width="10" height="10"/>
	<rect x="30" y="20" width="20" height="10"/>
	<rect x="20" y="30" width="10" height="20"/>
	<rect x="20" y="130" width="20" height="10"/>
	<rect x="40" y="110" width="10" height="20"/>
	<polygon points="40,100 20,100 20,50 10,50 10,130 20,130 20,110 40,110 	"/>
	<rect x="70" y="130" width="20" height="10"/>
	<rect x="90" y="110" width="10" height="20"/>
	<polygon points="100,20 100,10 50,10 50,20 60,20 60,130 70,130 70,110 90,110 90,100 70,100 70,20 	"/>
	<polygon points="120,120 120,30 110,30 110,130 130,130 130,140 140,140 140,120 	"/>
</g>
</svg>
