<?xml version="1.0" encoding="utf-8"?>
<!-- Generator: Adobe Illustrator 23.0.0, SVG Export Plug-In . SVG Version: 6.00 Build 0)  -->
<svg version="1.1" id="Layer_1" xmlns="http://www.w3.org/2000/svg" xmlns:xlink="http://www.w3.org/1999/xlink" x="0px" y="0px"
	 viewBox="0 0 150 150" style="enable-background:new 0 0 150 150;" xml:space="preserve">
<polygon points="30,20 20,20 20,30 10,30 10,40 20,40 20,60 30,60 "/>
<polygon points="90,60 60,60 60,50 70,50 70,30 80,30 80,50 90,50 "/>
<rect x="60" y="20" width="10" height="10"/>
<rect x="30" y="60" width="10" height="10"/>
<rect x="50" y="60" width="10" height="10"/>
<rect x="30" y="80" width="10" height="10"/>
<rect x="50" y="80" width="10" height="10"/>
<rect x="40" y="70" width="10" height="10"/>
<rect x="80" y="20" width="10" height="10"/>
<polygon points="120,130 130,130 130,120 140,120 140,110 130,110 130,90 120,90 "/>
<polygon points="120,20 130,20 130,30 140,30 140,40 130,40 130,60 120,60 "/>
<polygon points="30,130 20,130 20,120 10,120 10,110 20,110 20,90 30,90 "/>
<polygon points="60,90 90,90 90,100 80,100 80,120 70,120 70,100 60,100 "/>
<rect x="80" y="120" width="10" height="10"/>
<rect x="110" y="80" width="10" height="10"/>
<rect x="90" y="80" width="10" height="10"/>
<rect x="110" y="60" width="10" height="10"/>
<rect x="90" y="60" width="10" height="10"/>
<rect x="100" y="70" width="10" height="10"/>
<rect x="60" y="120" width="10" height="10"/>
</svg>
