<?xml version="1.0" encoding="utf-8"?>
<!-- Generator: Adobe Illustrator 23.0.0, SVG Export Plug-In . SVG Version: 6.00 Build 0)  -->
<svg version="1.1" id="Layer_1" xmlns="http://www.w3.org/2000/svg" xmlns:xlink="http://www.w3.org/1999/xlink" x="0px" y="0px"
	 viewBox="0 0 150 150" style="enable-background:new 0 0 150 150;" xml:space="preserve">
<polygon points="40,10 40,20 30,20 30,30 40,30 40,40 50,40 50,10 "/>
<polygon points="40,110 40,120 30,120 30,130 40,130 40,140 50,140 50,110 "/>
<rect x="50" y="40" width="10" height="20"/>
<rect x="50" y="90" width="10" height="20"/>
<rect x="60" y="60" width="10" height="10"/>
<rect x="70" y="70" width="10" height="10"/>
<rect x="60" y="80" width="10" height="10"/>
<polygon points="110,140 110,130 120,130 120,120 110,120 110,110 100,110 100,140 "/>
<polygon points="110,40 110,30 120,30 120,20 110,20 110,10 100,10 100,40 "/>
<rect x="90" y="90" width="10" height="20"/>
<rect x="90" y="40" width="10" height="20"/>
<rect x="80" y="80" transform="matrix(-1 -1.224647e-16 1.224647e-16 -1 170 170)" width="10" height="10"/>
<rect x="80" y="60" transform="matrix(-1 -1.224647e-16 1.224647e-16 -1 170 130)" width="10" height="10"/>
</svg>
