<?xml version="1.0" encoding="utf-8"?>
<!-- Generator: Adobe Illustrator 23.0.0, SVG Export Plug-In . SVG Version: 6.00 Build 0)  -->
<svg version="1.1" id="Layer_1" xmlns="http://www.w3.org/2000/svg" xmlns:xlink="http://www.w3.org/1999/xlink" x="0px" y="0px"
	 viewBox="0 0 150 150" style="enable-background:new 0 0 150 150;" xml:space="preserve">
<rect x="30" y="10" width="10" height="10"/>
<rect x="20" y="20" width="10" height="10"/>
<rect x="10" y="30" width="10" height="10"/>
<rect x="30" y="30" width="10" height="10"/>
<rect x="40" y="40" width="10" height="10"/>
<rect x="50" y="50" width="10" height="10"/>
<rect x="90" y="50" width="10" height="10"/>
<polygon points="130,60 130,70 90,70 90,60 80,60 80,20 90,20 90,10 60,10 60,20 70,20 70,60 60,60 60,70 20,70 20,60 10,60 10,90 
	20,90 20,80 60,80 60,90 70,90 70,130 60,130 60,140 90,140 90,130 80,130 80,90 90,90 90,80 130,80 130,90 140,90 140,60 "/>
<rect x="100" y="40" width="10" height="10"/>
<rect x="110" y="30" width="10" height="10"/>
<rect x="120" y="20" width="10" height="10"/>
<rect x="110" y="10" width="10" height="10"/>
<rect x="130" y="30" width="10" height="10"/>
<rect x="30" y="130" width="10" height="10"/>
<rect x="20" y="120" width="10" height="10"/>
<rect x="10" y="110" width="10" height="10"/>
<rect x="30" y="110" width="10" height="10"/>
<rect x="40" y="100" width="10" height="10"/>
<rect x="50" y="90" width="10" height="10"/>
<rect x="90" y="90" width="10" height="10"/>
<rect x="100" y="100" width="10" height="10"/>
<rect x="110" y="110" width="10" height="10"/>
<rect x="120" y="120" width="10" height="10"/>
<rect x="110" y="130" width="10" height="10"/>
<rect x="130" y="110" width="10" height="10"/>
</svg>
