<?xml version="1.0" encoding="utf-8"?>
<!-- Generator: Adobe Illustrator 23.0.0, SVG Export Plug-In . SVG Version: 6.00 Build 0)  -->
<svg version="1.1" id="Layer_1" xmlns="http://www.w3.org/2000/svg" xmlns:xlink="http://www.w3.org/1999/xlink" x="0px" y="0px"
	 viewBox="0 0 150 150" style="enable-background:new 0 0 150 150;" xml:space="preserve">
<rect x="130" y="20" width="10" height="10"/>
<rect x="120" y="30" width="10" height="10"/>
<rect x="110" y="40" width="10" height="10"/>
<rect x="110" y="10" width="20" height="10"/>
<rect x="100" y="20" width="10" height="10"/>
<polygon points="100,60 110,60 110,50 100,50 100,30 90,30 90,60 80,60 80,70 90,70 90,90 100,90 "/>
<rect x="30" y="90" width="10" height="10"/>
<rect x="20" y="100" width="10" height="10"/>
<polygon points="20,130 20,110 10,110 10,140 50,140 50,130 "/>
<rect x="50" y="120" width="10" height="10"/>
<polygon points="70,30 60,30 60,80 40,80 40,90 60,90 60,120 70,120 70,80 80,80 80,70 70,70 "/>
<rect x="50" y="20" width="10" height="10"/>
<rect x="30" y="10" width="20" height="10"/>
<rect x="20" y="20" width="10" height="10"/>
<rect x="10" y="30" width="10" height="20"/>
<rect x="80" y="90" width="10" height="20"/>
<rect x="90" y="110" width="10" height="20"/>
<rect x="100" y="130" width="20" height="10"/>
<rect x="130" y="70" width="10" height="40"/>
<rect x="120" y="110" width="10" height="20"/>
</svg>
