<?xml version="1.0" encoding="utf-8"?>
<!-- Generator: Adobe Illustrator 23.0.0, SVG Export Plug-In . SVG Version: 6.00 Build 0)  -->
<svg version="1.1" id="Layer_1" xmlns="http://www.w3.org/2000/svg" xmlns:xlink="http://www.w3.org/1999/xlink" x="0px" y="0px"
	 viewBox="0 0 150 150" style="enable-background:new 0 0 150 150;" xml:space="preserve">
<rect x="70" y="20" width="10" height="20"/>
<rect x="30" y="20" width="10" height="20"/>
<rect x="110" y="30" width="10" height="20"/>
<rect x="120" y="10" width="10" height="20"/>
<rect x="80" y="10" width="10" height="10"/>
<rect x="40" y="10" width="10" height="10"/>
<rect x="70" y="120" width="20" height="10"/>
<rect x="30" y="130" width="40" height="10"/>
<polygon points="30,130 30,110 20,110 20,130 "/>
<rect x="20" y="40" width="10" height="20"/>
<rect x="130" y="70" width="10" height="10"/>
<rect x="90" y="110" width="10" height="10"/>
<polygon points="100,110 110,110 110,90 130,90 130,80 110,80 110,50 100,50 100,60 70,60 70,40 60,40 60,60 30,60 30,70 100,70 
	100,80 80,80 80,90 100,90 "/>
<polygon points="40,100 80,99.9 80,90 40,90.1 "/>
<rect x="30" y="100" width="10" height="10"/>
</svg>
