<?xml version="1.0" encoding="utf-8"?>
<!-- Generator: Adobe Illustrator 23.0.0, SVG Export Plug-In . SVG Version: 6.00 Build 0)  -->
<svg version="1.1" id="Layer_1" xmlns="http://www.w3.org/2000/svg" xmlns:xlink="http://www.w3.org/1999/xlink" x="0px" y="0px"
	 viewBox="0 0 150 150" style="enable-background:new 0 0 150 150;" xml:space="preserve">
<style type="text/css">
	.st0{fill:#1D1D1B;}
</style>
<rect x="130" y="30" class="st0" width="10" height="30"/>
<rect x="100" y="60" class="st0" width="30" height="10"/>
<rect x="90" y="30" class="st0" width="10" height="30"/>
<rect x="130" y="90" class="st0" width="10" height="30"/>
<rect x="90" y="90" class="st0" width="10" height="30"/>
<rect x="100" y="80" class="st0" width="30" height="10"/>
<polygon class="st0" points="110,20 110,20 110,10 50,10 50,20 100,20 100,30 130,30 130,20 "/>
<polygon class="st0" points="130,120 100,120 100,130 50,130 50,140 110,140 110,130 130,130 "/>
<rect x="30" y="120" class="st0" width="20" height="10"/>
<rect x="20" y="100" class="st0" width="10" height="20"/>
<rect x="10" y="50" class="st0" width="10" height="50"/>
<rect x="20" y="30" class="st0" width="10" height="20"/>
<rect x="30" y="20" class="st0" width="20" height="10"/>
</svg>
