<?xml version="1.0" encoding="utf-8"?>
<!-- Generator: Adobe Illustrator 23.0.0, SVG Export Plug-In . SVG Version: 6.00 Build 0)  -->
<svg version="1.1" id="Layer_1" xmlns="http://www.w3.org/2000/svg" xmlns:xlink="http://www.w3.org/1999/xlink" x="0px" y="0px"
	 viewBox="0 0 150 150" style="enable-background:new 0 0 150 150;" xml:space="preserve">
<style type="text/css">
	.st0{fill:#1D1D1B;}
</style>
<polygon class="st0" points="80,80 80,90 100,90 100,100 80,100 80,140 70,140 70,100 50,100 50,90 70,90 70,80 10,80 10,70 70,70 
	70,60 50,60 50,50 70,50 70,10 80,10 80,50 100,50 100,60 80,60 80,70 140,70 140,80 "/>
<rect x="10" y="120" class="st0" width="10" height="20"/>
<rect x="20" y="110" class="st0" width="10" height="10"/>
<rect x="120" y="110" class="st0" width="10" height="10"/>
<rect x="30" y="100" class="st0" width="20" height="10"/>
<rect x="100" y="100" class="st0" width="20" height="10"/>
<rect x="130" y="120" class="st0" width="10" height="20"/>
<rect x="10" y="10" class="st0" width="10" height="20"/>
<rect x="130" y="10" class="st0" width="10" height="20"/>
<rect x="20" y="30" class="st0" width="10" height="10"/>
<rect x="120" y="30" class="st0" width="10" height="10"/>
<polygon class="st0" points="120,50 120,40 110,40 100,40 100,50 110,50 "/>
<rect x="30" y="40" class="st0" width="20" height="10"/>
</svg>
