<?xml version="1.0" encoding="utf-8"?>
<!-- Generator: Adobe Illustrator 23.0.0, SVG Export Plug-In . SVG Version: 6.00 Build 0)  -->
<svg version="1.1" id="Layer_1" xmlns="http://www.w3.org/2000/svg" xmlns:xlink="http://www.w3.org/1999/xlink" x="0px" y="0px"
	 viewBox="0 0 150 150" style="enable-background:new 0 0 150 150;" xml:space="preserve">
<style type="text/css">
	.st0{fill:#1D1D1B;}
</style>
<rect x="30" y="110" class="st0" width="10" height="10"/>
<rect x="40" y="100" class="st0" width="10" height="10"/>
<rect x="50" y="90" class="st0" width="10" height="10"/>
<rect x="60" y="80" class="st0" width="10" height="10"/>
<rect x="70" y="70" class="st0" width="10" height="10"/>
<rect x="80" y="60" class="st0" width="10" height="10"/>
<rect x="90" y="50" class="st0" width="10" height="10"/>
<rect x="100" y="40" class="st0" width="10" height="10"/>
<rect x="110" y="30" class="st0" width="10" height="10"/>
<polygon class="st0" points="30,130 30,120 20,120 20,20 120,20 120,30 130,30 130,20 140,20 140,10 10,10 10,140 140,140 140,130 
	"/>
</svg>
