<?xml version="1.0" encoding="utf-8"?>
<!-- Generator: Adobe Illustrator 23.0.0, SVG Export Plug-In . SVG Version: 6.00 Build 0)  -->
<svg version="1.1" id="Layer_1" xmlns="http://www.w3.org/2000/svg" xmlns:xlink="http://www.w3.org/1999/xlink" x="0px" y="0px"
	 viewBox="0 0 150 150" style="enable-background:new 0 0 150 150;" xml:space="preserve">
<style type="text/css">
	.st0{fill:#1D1D1B;}
</style>
<rect x="20" y="30" class="st0" width="10" height="20"/>
<polygon class="st0" points="130,50 130,70 20,70 20,50 10,50 10,100 20,100 20,80 130,80 130,100 140,100 140,50 "/>
<rect x="30" y="20" class="st0" width="20" height="10"/>
<rect x="50" y="10" class="st0" width="50" height="10"/>
<rect x="100" y="20" class="st0" width="20" height="10"/>
<rect x="120" y="30" class="st0" width="10" height="20"/>
<rect x="120" y="100" class="st0" width="10" height="20"/>
<rect x="100" y="120" class="st0" width="20" height="10"/>
<rect x="50" y="130" class="st0" width="50" height="10"/>
<rect x="30" y="120" class="st0" width="20" height="10"/>
<rect x="20" y="100" class="st0" width="10" height="20"/>
</svg>
