<?xml version="1.0" encoding="utf-8"?>
<!-- Generator: Adobe Illustrator 23.0.0, SVG Export Plug-In . SVG Version: 6.00 Build 0)  -->
<svg version="1.1" id="Layer_1" xmlns="http://www.w3.org/2000/svg" xmlns:xlink="http://www.w3.org/1999/xlink" x="0px" y="0px"
	 viewBox="0 0 150 150" style="enable-background:new 0 0 150 150;" xml:space="preserve">
<rect x="100" y="100" transform="matrix(-1 -1.224647e-16 1.224647e-16 -1 210 230)" width="10" height="30"/>
<rect x="70" y="130" transform="matrix(-1 -1.224647e-16 1.224647e-16 -1 170 270)" width="30" height="10"/>
<rect x="60" y="120" transform="matrix(-1 -1.224647e-16 1.224647e-16 -1 130 250)" width="10" height="10"/>
<polygon points="130,60 130,50 60,50 60,30 80,30 80,20 60,20 60,10 50,10 50,20 30,20 30,30 50,30 50,90 10,90 10,100 50,100 
	50,120 60,120 60,100 100,100 100,90 60,90 60,60 "/>
<rect x="130" y="30" transform="matrix(-1 -1.224647e-16 1.224647e-16 -1 270 80)" width="10" height="20"/>
</svg>
