<?xml version="1.0" encoding="utf-8"?>
<!-- Generator: Adobe Illustrator 23.0.0, SVG Export Plug-In . SVG Version: 6.00 Build 0)  -->
<svg version="1.1" id="Layer_1" xmlns="http://www.w3.org/2000/svg" xmlns:xlink="http://www.w3.org/1999/xlink" x="0px" y="0px"
	 viewBox="0 0 150 150" style="enable-background:new 0 0 150 150;" xml:space="preserve">
<rect x="70" y="10" transform="matrix(-1 -1.224647e-16 1.224647e-16 -1 150 30)" width="10" height="10"/>
<rect x="20" y="10" transform="matrix(-1 -1.224647e-16 1.224647e-16 -1 50 30)" width="10" height="10"/>
<rect x="60" y="20" transform="matrix(-1 -1.224647e-16 1.224647e-16 -1 130 60)" width="10" height="20"/>
<rect x="80" y="20" transform="matrix(-1 -1.224647e-16 1.224647e-16 -1 170 60)" width="10" height="20"/>
<rect x="50" y="40" transform="matrix(-1 -1.224647e-16 1.224647e-16 -1 110 100)" width="10" height="20"/>
<rect x="90" y="40" transform="matrix(-1 -1.224647e-16 1.224647e-16 -1 190 100)" width="10" height="20"/>
<polygon points="110,80 110,60 100,60 100,80 50,80 50,60.04 40,60.04 40,80 10,80 10,90 30,90 30,100 40,100 40,90 110,90 110,100 
	120,100 120,90 140,90 140,80 "/>
<rect x="120" y="100" transform="matrix(-1 -1.224647e-16 1.224647e-16 -1 250 220)" width="10" height="20"/>
<rect x="130" y="120" transform="matrix(-1 -1.224647e-16 1.224647e-16 -1 270 260)" width="10" height="20"/>
<rect x="20" y="100" transform="matrix(-1 -1.224647e-16 1.224647e-16 -1 50 220)" width="10" height="20"/>
<rect x="10" y="120" transform="matrix(-1 -1.224647e-16 1.224647e-16 -1 30 260)" width="10" height="20"/>
</svg>
