<?xml version="1.0" encoding="utf-8"?>
<!-- Generator: Adobe Illustrator 23.0.0, SVG Export Plug-In . SVG Version: 6.00 Build 0)  -->
<svg version="1.1" id="Layer_1" xmlns="http://www.w3.org/2000/svg" xmlns:xlink="http://www.w3.org/1999/xlink" x="0px" y="0px"
	 viewBox="0 0 150 150" style="enable-background:new 0 0 150 150;" xml:space="preserve">
<rect x="70" y="120" width="10" height="20"/>
<rect x="80" y="100" width="10" height="20"/>
<rect x="90" y="80" width="10" height="20"/>
<rect x="100" y="60" width="10" height="20"/>
<rect x="110" y="50" width="10" height="10"/>
<polygon points="110,20 110,30 120,30 120,50 130,50 130,20 "/>
<rect x="90" y="30" width="20" height="10"/>
<rect x="60" y="40" width="30" height="10"/>
<rect x="50" y="30" width="10" height="10"/>
<rect x="60" y="10" width="10" height="10"/>
<rect x="80" y="10" width="10" height="10"/>
<rect x="30" y="20" width="20" height="10"/>
<rect x="20" y="30" width="10" height="20"/>
</svg>
