<?xml version="1.0" encoding="utf-8"?>
<!-- Generator: Adobe Illustrator 23.0.0, SVG Export Plug-In . SVG Version: 6.00 Build 0)  -->
<svg version="1.1" id="Layer_1" xmlns="http://www.w3.org/2000/svg" xmlns:xlink="http://www.w3.org/1999/xlink" x="0px" y="0px"
	 viewBox="0 0 150 150" style="enable-background:new 0 0 150 150;" xml:space="preserve">
<rect x="70" y="10" transform="matrix(-1 -1.224647e-16 1.224647e-16 -1 150 30)" width="10" height="10"/>
<rect x="70" y="90" transform="matrix(-1 -1.224647e-16 1.224647e-16 -1 150 190)" width="10" height="10"/>
<rect x="60" y="20" transform="matrix(-1 -1.224647e-16 1.224647e-16 -1 130 60)" width="10" height="20"/>
<rect x="80" y="20" transform="matrix(-1 -1.224647e-16 1.224647e-16 -1 170 60)" width="10" height="20"/>
<rect x="50" y="40" transform="matrix(-1 -1.224647e-16 1.224647e-16 -1 110 100)" width="10" height="20"/>
<rect x="90" y="40" transform="matrix(-1 -1.224647e-16 1.224647e-16 -1 190 100)" width="10" height="20"/>
<rect x="40" y="60" transform="matrix(-1 -1.224647e-16 1.224647e-16 -1 90 140)" width="10" height="20"/>
<rect x="100" y="60" transform="matrix(-1 -1.224647e-16 1.224647e-16 -1 210 140)" width="10" height="20"/>
<rect x="110" y="80" transform="matrix(-1 -1.224647e-16 1.224647e-16 -1 230 180)" width="10" height="20"/>
<rect x="120" y="100" transform="matrix(-1 -1.224647e-16 1.224647e-16 -1 250 220)" width="10" height="20"/>
<rect x="130" y="120" transform="matrix(-1 -1.224647e-16 1.224647e-16 -1 270 260)" width="10" height="20"/>
<rect x="30" y="80" transform="matrix(-1 -1.224647e-16 1.224647e-16 -1 70 180)" width="10" height="20"/>
<rect x="20" y="100" transform="matrix(-1 -1.224647e-16 1.224647e-16 -1 50 220)" width="10" height="20"/>
<rect x="10" y="120" transform="matrix(-1 -1.224647e-16 1.224647e-16 -1 30 260)" width="10" height="20"/>
</svg>
