<?xml version="1.0" encoding="utf-8"?>
<!-- Generator: Adobe Illustrator 23.0.0, SVG Export Plug-In . SVG Version: 6.00 Build 0)  -->
<svg version="1.1" id="Layer_1" xmlns="http://www.w3.org/2000/svg" xmlns:xlink="http://www.w3.org/1999/xlink" x="0px" y="0px"
	 viewBox="0 0 150 150" style="enable-background:new 0 0 150 150;" xml:space="preserve">
<rect x="20" y="50" width="10" height="10"/>
<rect x="10" y="120" width="10" height="20"/>
<rect x="20" y="100" width="10" height="20"/>
<rect x="30" y="90" width="10" height="10"/>
<rect x="40" y="80" width="10" height="10"/>
<rect x="60" y="30" width="10" height="30"/>
<rect x="70" y="20" width="10" height="10"/>
<rect x="80" y="10" width="10" height="10"/>
<polygon points="120,70 80,70 80,60 70,60 70,70 50,70 50,80 70,80 70,90 80,90 80,80 120,80 "/>
<rect x="120" y="80" width="10" height="10"/>
<rect x="130" y="90" width="10" height="20"/>
<rect x="90" y="110" width="40" height="10"/>
<rect x="80" y="90" width="10" height="20"/>
</svg>
