<?xml version="1.0" encoding="utf-8"?>
<!-- Generator: Adobe Illustrator 23.0.0, SVG Export Plug-In . SVG Version: 6.00 Build 0)  -->
<svg version="1.1" id="Layer_1" xmlns="http://www.w3.org/2000/svg" xmlns:xlink="http://www.w3.org/1999/xlink" x="0px" y="0px"
	 viewBox="0 0 150 150" style="enable-background:new 0 0 150 150;" xml:space="preserve">
<rect x="40" y="50" width="10" height="10"/>
<rect x="50" y="30" width="10" height="20"/>
<rect x="40" y="20" width="10" height="10"/>
<rect x="20" y="10" width="20" height="10"/>
<rect x="120" y="110" width="10" height="20"/>
<polygon points="120,40 120,50 130,50 130,70 120,70 120,80 130,80 130,110 140,110 140,40 "/>
<rect x="110" y="50" width="10" height="20"/>
<rect x="40" y="130" width="80" height="10"/>
<rect x="30" y="120" width="10" height="10"/>
<rect x="20" y="100" width="10" height="20"/>
<polygon points="40,60 20,60 20,20 10,20 10,100 20,100 20,70 40,70 "/>
</svg>
