<?xml version="1.0" encoding="utf-8"?>
<!-- Generator: Adobe Illustrator 23.0.0, SVG Export Plug-In . SVG Version: 6.00 Build 0)  -->
<svg version="1.1" id="Layer_1" xmlns="http://www.w3.org/2000/svg" xmlns:xlink="http://www.w3.org/1999/xlink" x="0px" y="0px"
	 viewBox="0 0 150 150" style="enable-background:new 0 0 150 150;" xml:space="preserve">
<rect x="40" y="80" width="10" height="30"/>
<polygon points="30,110 30,130 10,130 10,140 40,140 40,110 "/>
<rect x="100" y="70" width="10" height="20"/>
<rect x="110" y="90" width="10" height="20"/>
<rect x="120" y="110" width="10" height="10"/>
<polygon points="130,120 130,130 110,130 110,140 140,140 140,120 "/>
<rect x="80" y="40" width="10" height="20"/>
<rect x="90" y="60" width="10" height="10"/>
<rect x="60" y="40" width="10" height="20"/>
<rect x="50" y="60" width="10" height="20"/>
<polygon points="120,20 80,20 80,10 70,10 70,20 30,20 30,30 70,30 70,40 80,40 80,30 120,30 "/>
</svg>
