<?xml version="1.0" encoding="utf-8"?>
<!-- Generator: Adobe Illustrator 23.0.0, SVG Export Plug-In . SVG Version: 6.00 Build 0)  -->
<svg version="1.1" id="Layer_1" xmlns="http://www.w3.org/2000/svg" xmlns:xlink="http://www.w3.org/1999/xlink" x="0px" y="0px"
	 viewBox="0 0 150 150" style="enable-background:new 0 0 150 150;" xml:space="preserve">
<rect x="110" y="20" width="10" height="10"/>
<rect x="110" y="70" width="10" height="10"/>
<rect x="90" y="80" width="20" height="10"/>
<rect x="120" y="30" width="10" height="40"/>
<rect x="40" y="110" width="20" height="10"/>
<rect x="20" y="120" width="20" height="10"/>
<rect x="90" y="110" width="20" height="10"/>
<rect x="110" y="120" width="20" height="10"/>
<polygon points="80,90 80,100 70,100 70,90 60,90 60,110 70,110 70,140 80,140 80,110 90,110 90,90 "/>
<rect x="30" y="70" width="10" height="10"/>
<rect x="40" y="80" width="20" height="10"/>
<rect x="20" y="30" width="10" height="40"/>
<rect x="30" y="20" width="10" height="10"/>
<rect x="40" y="10" width="70" height="10"/>
</svg>
