<?xml version="1.0" encoding="utf-8"?>
<!-- Generator: Adobe Illustrator 23.0.0, SVG Export Plug-In . SVG Version: 6.00 Build 0)  -->
<svg version="1.1" id="Layer_1" xmlns="http://www.w3.org/2000/svg" xmlns:xlink="http://www.w3.org/1999/xlink" x="0px" y="0px"
	 viewBox="0 0 150 150" style="enable-background:new 0 0 150 150;" xml:space="preserve">
<rect x="80" y="20" width="10" height="20"/>
<rect x="110" y="60" width="10" height="10"/>
<rect x="100" y="110" width="20" height="10"/>
<rect x="120" y="70" width="10" height="40"/>
<polygon points="100,130 100,120 80,120 80,130 60,130 60,140 140,140 140,130 "/>
<polygon points="110,50 80,50 80,40 70,40 70,50 20,50 20,20 80,20 80,10 10,10 10,120 20,120 20,60 110,60 "/>
</svg>
