<?xml version="1.0" encoding="utf-8"?>
<!-- Generator: Adobe Illustrator 23.0.0, SVG Export Plug-In . SVG Version: 6.00 Build 0)  -->
<svg version="1.1" id="Layer_1" xmlns="http://www.w3.org/2000/svg" xmlns:xlink="http://www.w3.org/1999/xlink" x="0px" y="0px"
	 viewBox="0 0 150 150" style="enable-background:new 0 0 150 150;" xml:space="preserve">
<polygon points="120,130 120,110 130,110 130,100 120,100 120,10 110,10 110,20 100,20 100,40 110,40 110,100 100,100 100,110 
	110,110 110,130 90,130 90,140 140,140 140,130 "/>
<rect x="90" y="40" width="10" height="30"/>
<rect x="80" y="70" width="10" height="20"/>
<rect x="70" y="90" width="10" height="10"/>
<rect x="30" y="100" width="40" height="10"/>
<rect x="20" y="80" width="10" height="20"/>
<rect x="10" y="30" width="10" height="50"/>
<rect x="20" y="20" width="10" height="10"/>
<rect x="30" y="10" width="20" height="10"/>
</svg>
