<?xml version="1.0" encoding="utf-8"?>
<!-- Generator: Adobe Illustrator 23.0.0, SVG Export Plug-In . SVG Version: 6.00 Build 0)  -->
<svg version="1.1" id="Layer_1" xmlns="http://www.w3.org/2000/svg" xmlns:xlink="http://www.w3.org/1999/xlink" x="0px" y="0px"
	 viewBox="0 0 150 150" style="enable-background:new 0 0 150 150;" xml:space="preserve">
<rect x="50" y="100" width="10" height="20"/>
<rect x="40" y="70" width="10" height="30"/>
<rect x="30" y="50" width="10" height="20"/>
<rect x="10" y="10" width="10" height="20"/>
<rect x="20" y="30" width="10" height="20"/>
<rect x="90" y="100" width="10" height="20"/>
<rect x="100" y="70" width="10" height="30"/>
<rect x="110" y="50" width="10" height="20"/>
<rect x="130" y="10" width="10" height="20"/>
<rect x="120" y="30" width="10" height="20"/>
<polygon points="90,130 90,120 80,120 80,10 70,10 70,120 60,120 60,130 40,130 40,140 110,140 110,130 "/>
</svg>
