<?xml version="1.0" encoding="utf-8"?>
<!-- Generator: Adobe Illustrator 23.0.0, SVG Export Plug-In . SVG Version: 6.00 Build 0)  -->
<svg version="1.1" id="Layer_1" xmlns="http://www.w3.org/2000/svg" xmlns:xlink="http://www.w3.org/1999/xlink" x="0px" y="0px"
	 viewBox="0 0 150 150" style="enable-background:new 0 0 150 150;" xml:space="preserve">
<rect x="30" y="30" width="10" height="20"/>
<rect x="40" y="50" width="10" height="10"/>
<rect x="50" y="10" width="50" height="10"/>
<rect x="40" y="20" width="10" height="10"/>
<rect x="100" y="20" width="10" height="10"/>
<rect x="110" y="30" width="10" height="20"/>
<rect x="100" y="50" width="10" height="10"/>
<rect x="110" y="100" width="10" height="20"/>
<rect x="100" y="90" width="10" height="10"/>
<rect x="100" y="120" width="10" height="10"/>
<rect x="50" y="130" width="50" height="10"/>
<rect x="40" y="120" width="10" height="10"/>
<rect x="30" y="100" width="10" height="20"/>
<rect x="40" y="90" width="10" height="10"/>
<polygon points="120,70 100,70 100,60 90,60 90,70 60,70 60,60 50,60 50,70 30,70 30,80 50,80 50,90 60,90 60,80 90,80 90,90 
	100,90 100,80 120,80 "/>
</svg>
